<?xml version="1.0" encoding="UTF-8"?>
<svg id="b" data-name="Layer 2" xmlns="http://www.w3.org/2000/svg" viewBox="0 0 654.92 449.34">
  <defs>
    <style>
      .d {
        fill: #161616;
      }
    </style>
  </defs>
  <g id="c" data-name="FATCAP">
    <g>
      <polygon class="d" points="47.25 43.09 86.31 43.09 86.31 3.65 0 3.65 0 441.52 47.25 441.52 47.25 222.77 78.5 222.77 78.5 183.34 47.25 183.34 47.25 43.09"/>
      <path class="d" d="M109.81,3.65l-24.33,437.88h47.39l4.15-101.56h7.82l3.91,101.56h47.4L171.82,3.65h-62.01ZM144.19,300.52h-6.53l3.16-80.94,3.37,80.94Z"/>
      <polygon class="d" points="193.6 43.09 224.85 43.09 224.85 441.52 272.1 441.52 272.1 43.09 303.35 43.09 303.35 3.65 193.6 3.65 193.6 43.09"/>
      <path class="d" d="M403.19,12.53c-5.15-4.2-11.09-7.38-17.64-9.48-12.4-3.95-26.11-4.08-38.99-.3-6.45,1.9-12.38,4.89-17.61,8.88-5.42,4.14-9.84,9.53-13.14,16.04-3.33,6.56-5.02,14.31-5.02,23.03v343.75c0,2.23.25,5.95.77,11.38.59,6.19,2.63,12.52,6.07,18.82,3.55,6.52,9.13,12.29,16.56,17.15,7.75,5.07,18.05,7.53,31.48,7.53s23.73-2.46,31.48-7.53c7.43-4.86,13.01-10.63,16.56-17.15,3.44-6.3,5.48-12.63,6.07-18.82.52-5.43.77-9.15.77-11.38v-172.06h-47.25v172.06c0,1.74-.08,3.92-.23,6.47-.11,1.85-.49,3.55-1.15,5.21-.47,1.17-1.18,2.12-2.24,2.97-.47.38-1.77.79-4.01.79s-3.53-.41-4.01-.79c-1.05-.85-1.76-1.8-2.24-2.97-.67-1.66-1.04-3.36-1.15-5.21-.15-2.49-.23-4.67-.23-6.47V50.71c0-3.71.48-5.83.88-6.97.6-1.7,1.2-2.43,1.49-2.71.57-.54,1.16-.89,1.84-1.1,2.25-.68,4.58-.68,6.81,0,.7.21,1.29.56,1.85,1.09.24.23.87.95,1.49,2.71.4,1.14.89,3.28.89,6.98v140.81h47.25V50.71c0-8.18-1.58-15.59-4.71-22.05-3.11-6.4-7.36-11.83-12.65-16.14Z"/>
      <path class="d" d="M451.85,3.65l-24.33,437.88h47.39l4.15-101.56h7.82l3.91,101.56h47.41L513.86,3.65h-62.01ZM486.23,300.52h-6.54l3.16-80.94,3.37,80.94Z"/>
      <path class="d" d="M653.86,36.88c-.9-6.29-3.96-12.08-9.1-17.22-4.88-4.88-12.03-8.73-21.86-11.76-9.33-2.87-21.91-4.26-38.48-4.26h-39.25v437.88h47.25v-203.2c5.21-.09,10.36-.28,15.38-.55,8.36-.45,15.98-2.09,22.67-4.88,7.3-3.04,13.25-7.92,17.71-14.5,4.54-6.71,6.75-15.56,6.75-27.07V50.71c0-4.24-.36-8.89-1.06-13.83ZM592.42,198.84V43.15c2.36.04,4.52.1,6.44.18,3.82.16,5.91.71,7,1.14.84.33.98.63,1.06.78.17.35.75,1.78.75,5.46v140.62c0,2.16-.41,3.41-.79,3.86-.83.99-1.98,1.71-3.5,2.22-2.22.74-4.85,1.18-7.83,1.31-1.03.04-2.07.08-3.12.12Z"/>
    </g>
  </g>
</svg>